<svg enable-background="new 0 0 1110 1110" height="1110" viewBox="0 0 1110 1110" width="1110" xmlns="http://www.w3.org/2000/svg"><path d="m0 0h1110v1110h-1110z" fill="#e0e0e0"/><g stroke-width=".3" fill="#1c1d21"><path d="m360 60h30v30h-30z"/><path d="m480 60h30v30h-30z"/><path d="m690 60h30v30h-30z"/><path d="m720 60h30v30h-30z"/><path d="m300 90h30v30h-30z"/><path d="m390 90h30v30h-30z"/><path d="m420 90h30v30h-30z"/><path d="m450 90h30v30h-30z"/><path d="m480 90h30v30h-30z"/><path d="m570 90h30v30h-30z"/><path d="m660 90h30v30h-30z"/><path d="m690 90h30v30h-30z"/><path d="m720 90h30v30h-30z"/><path d="m780 90h30v30h-30z"/><path d="m300 120h30v30h-30z"/><path d="m330 120h30v30h-30z"/><path d="m360 120h30v30h-30z"/><path d="m390 120h30v30h-30z"/><path d="m420 120h30v30h-30z"/><path d="m450 120h30v30h-30z"/><path d="m570 120h30v30h-30z"/><path d="m600 120h30v30h-30z"/><path d="m690 120h30v30h-30z"/><path d="m750 120h30v30h-30z"/><path d="m300 150h30v30h-30z"/><path d="m330 150h30v30h-30z"/><path d="m690 150h30v30h-30z"/><path d="m750 150h30v30h-30z"/><path d="m780 150h30v30h-30z"/><path d="m330 180h30v30h-30z"/><path d="m390 180h30v30h-30z"/><path d="m510 180h30v30h-30z"/><path d="m570 180h30v30h-30z"/><path d="m600 180h30v30h-30z"/><path d="m690 180h30v30h-30z"/><path d="m720 180h30v30h-30z"/><path d="m750 180h30v30h-30z"/><path d="m480 210h30v30h-30z"/><path d="m540 210h30v30h-30z"/><path d="m600 210h30v30h-30z"/><path d="m660 210h30v30h-30z"/><path d="m720 210h30v30h-30z"/><path d="m780 210h30v30h-30z"/><path d="m300 240h30v30h-30z"/><path d="m360 240h30v30h-30z"/><path d="m420 240h30v30h-30z"/><path d="m480 240h30v30h-30z"/><path d="m540 240h30v30h-30z"/><path d="m600 240h30v30h-30z"/><path d="m660 240h30v30h-30z"/><path d="m720 240h30v30h-30z"/><path d="m780 240h30v30h-30z"/><path d="m300 270h30v30h-30z"/><path d="m360 270h30v30h-30z"/><path d="m390 270h30v30h-30z"/><path d="m480 270h30v30h-30z"/><path d="m600 270h30v30h-30z"/><path d="m780 270h30v30h-30z"/><path d="m60 300h30v30h-30z"/><path d="m240 300h30v30h-30z"/><path d="m300 300h30v30h-30z"/><path d="m330 300h30v30h-30z"/><path d="m360 300h30v30h-30z"/><path d="m390 300h30v30h-30z"/><path d="m450 300h30v30h-30z"/><path d="m480 300h30v30h-30z"/><path d="m510 300h30v30h-30z"/><path d="m540 300h30v30h-30z"/><path d="m570 300h30v30h-30z"/><path d="m660 300h30v30h-30z"/><path d="m780 300h30v30h-30z"/><path d="m810 300h30v30h-30z"/><path d="m840 300h30v30h-30z"/><path d="m930 300h30v30h-30z"/><path d="m960 300h30v30h-30z"/><path d="m990 300h30v30h-30z"/><path d="m60 330h30v30h-30z"/><path d="m90 330h30v30h-30z"/><path d="m120 330h30v30h-30z"/><path d="m150 330h30v30h-30z"/><path d="m210 330h30v30h-30z"/><path d="m270 330h30v30h-30z"/><path d="m330 330h30v30h-30z"/><path d="m360 330h30v30h-30z"/><path d="m390 330h30v30h-30z"/><path d="m480 330h30v30h-30z"/><path d="m510 330h30v30h-30z"/><path d="m630 330h30v30h-30z"/><path d="m690 330h30v30h-30z"/><path d="m750 330h30v30h-30z"/><path d="m810 330h30v30h-30z"/><path d="m900 330h30v30h-30z"/><path d="m90 360h30v30h-30z"/><path d="m120 360h30v30h-30z"/><path d="m180 360h30v30h-30z"/><path d="m210 360h30v30h-30z"/><path d="m240 360h30v30h-30z"/><path d="m270 360h30v30h-30z"/><path d="m330 360h30v30h-30z"/><path d="m360 360h30v30h-30z"/><path d="m420 360h30v30h-30z"/><path d="m510 360h30v30h-30z"/><path d="m540 360h30v30h-30z"/><path d="m600 360h30v30h-30z"/><path d="m660 360h30v30h-30z"/><path d="m690 360h30v30h-30z"/><path d="m810 360h30v30h-30z"/><path d="m870 360h30v30h-30z"/><path d="m900 360h30v30h-30z"/><path d="m930 360h30v30h-30z"/><path d="m960 360h30v30h-30z"/><path d="m990 360h30v30h-30z"/><path d="m90 390h30v30h-30z"/><path d="m180 390h30v30h-30z"/><path d="m210 390h30v30h-30z"/><path d="m300 390h30v30h-30z"/><path d="m330 390h30v30h-30z"/><path d="m360 390h30v30h-30z"/><path d="m390 390h30v30h-30z"/><path d="m420 390h30v30h-30z"/><path d="m480 390h30v30h-30z"/><path d="m510 390h30v30h-30z"/><path d="m780 390h30v30h-30z"/><path d="m840 390h30v30h-30z"/><path d="m870 390h30v30h-30z"/><path d="m900 390h30v30h-30z"/><path d="m930 390h30v30h-30z"/><path d="m960 390h30v30h-30z"/><path d="m990 390h30v30h-30z"/><path d="m150 420h30v30h-30z"/><path d="m180 420h30v30h-30z"/><path d="m210 420h30v30h-30z"/><path d="m240 420h30v30h-30z"/><path d="m330 420h30v30h-30z"/><path d="m360 420h30v30h-30z"/><path d="m450 420h30v30h-30z"/><path d="m480 420h30v30h-30z"/><path d="m510 420h30v30h-30z"/><path d="m540 420h30v30h-30z"/><path d="m570 420h30v30h-30z"/><path d="m600 420h30v30h-30z"/><path d="m660 420h30v30h-30z"/><path d="m720 420h30v30h-30z"/><path d="m750 420h30v30h-30z"/><path d="m840 420h30v30h-30z"/><path d="m990 420h30v30h-30z"/><path d="m60 450h30v30h-30z"/><path d="m90 450h30v30h-30z"/><path d="m120 450h30v30h-30z"/><path d="m150 450h30v30h-30z"/><path d="m210 450h30v30h-30z"/><path d="m270 450h30v30h-30z"/><path d="m480 450h30v30h-30z"/><path d="m540 450h30v30h-30z"/><path d="m660 450h30v30h-30z"/><path d="m720 450h30v30h-30z"/><path d="m750 450h30v30h-30z"/><path d="m780 450h30v30h-30z"/><path d="m810 450h30v30h-30z"/><path d="m840 450h30v30h-30z"/><path d="m930 450h30v30h-30z"/><path d="m1020 450h30v30h-30z"/><path d="m90 480h30v30h-30z"/><path d="m120 480h30v30h-30z"/><path d="m150 480h30v30h-30z"/><path d="m180 480h30v30h-30z"/><path d="m240 480h30v30h-30z"/><path d="m300 480h30v30h-30z"/><path d="m330 480h30v30h-30z"/><path d="m420 480h30v30h-30z"/><path d="m450 480h30v30h-30z"/><path d="m630 480h30v30h-30z"/><path d="m690 480h30v30h-30z"/><path d="m780 480h30v30h-30z"/><path d="m840 480h30v30h-30z"/><path d="m870 480h30v30h-30z"/><path d="m930 480h30v30h-30z"/><path d="m960 480h30v30h-30z"/><path d="m990 480h30v30h-30z"/><path d="m120 510h30v30h-30z"/><path d="m150 510h30v30h-30z"/><path d="m180 510h30v30h-30z"/><path d="m210 510h30v30h-30z"/><path d="m270 510h30v30h-30z"/><path d="m300 510h30v30h-30z"/><path d="m360 510h30v30h-30z"/><path d="m450 510h30v30h-30z"/><path d="m480 510h30v30h-30z"/><path d="m510 510h30v30h-30z"/><path d="m630 510h30v30h-30z"/><path d="m720 510h30v30h-30z"/><path d="m780 510h30v30h-30z"/><path d="m930 510h30v30h-30z"/><path d="m960 510h30v30h-30z"/><path d="m90 540h30v30h-30z"/><path d="m120 540h30v30h-30z"/><path d="m180 540h30v30h-30z"/><path d="m240 540h30v30h-30z"/><path d="m300 540h30v30h-30z"/><path d="m330 540h30v30h-30z"/><path d="m420 540h30v30h-30z"/><path d="m450 540h30v30h-30z"/><path d="m540 540h30v30h-30z"/><path d="m570 540h30v30h-30z"/><path d="m600 540h30v30h-30z"/><path d="m630 540h30v30h-30z"/><path d="m660 540h30v30h-30z"/><path d="m720 540h30v30h-30z"/><path d="m750 540h30v30h-30z"/><path d="m810 540h30v30h-30z"/><path d="m870 540h30v30h-30z"/><path d="m900 540h30v30h-30z"/><path d="m930 540h30v30h-30z"/><path d="m120 570h30v30h-30z"/><path d="m300 570h30v30h-30z"/><path d="m360 570h30v30h-30z"/><path d="m510 570h30v30h-30z"/><path d="m540 570h30v30h-30z"/><path d="m570 570h30v30h-30z"/><path d="m630 570h30v30h-30z"/><path d="m720 570h30v30h-30z"/><path d="m750 570h30v30h-30z"/><path d="m840 570h30v30h-30z"/><path d="m870 570h30v30h-30z"/><path d="m930 570h30v30h-30z"/><path d="m960 570h30v30h-30z"/><path d="m990 570h30v30h-30z"/><path d="m1020 570h30v30h-30z"/><path d="m60 600h30v30h-30z"/><path d="m90 600h30v30h-30z"/><path d="m120 600h30v30h-30z"/><path d="m150 600h30v30h-30z"/><path d="m210 600h30v30h-30z"/><path d="m240 600h30v30h-30z"/><path d="m270 600h30v30h-30z"/><path d="m300 600h30v30h-30z"/><path d="m330 600h30v30h-30z"/><path d="m360 600h30v30h-30z"/><path d="m390 600h30v30h-30z"/><path d="m420 600h30v30h-30z"/><path d="m450 600h30v30h-30z"/><path d="m480 600h30v30h-30z"/><path d="m510 600h30v30h-30z"/><path d="m630 600h30v30h-30z"/><path d="m660 600h30v30h-30z"/><path d="m750 600h30v30h-30z"/><path d="m810 600h30v30h-30z"/><path d="m900 600h30v30h-30z"/><path d="m930 600h30v30h-30z"/><path d="m960 600h30v30h-30z"/><path d="m990 600h30v30h-30z"/><path d="m1020 600h30v30h-30z"/><path d="m60 630h30v30h-30z"/><path d="m180 630h30v30h-30z"/><path d="m210 630h30v30h-30z"/><path d="m270 630h30v30h-30z"/><path d="m300 630h30v30h-30z"/><path d="m330 630h30v30h-30z"/><path d="m360 630h30v30h-30z"/><path d="m420 630h30v30h-30z"/><path d="m480 630h30v30h-30z"/><path d="m510 630h30v30h-30z"/><path d="m540 630h30v30h-30z"/><path d="m570 630h30v30h-30z"/><path d="m600 630h30v30h-30z"/><path d="m780 630h30v30h-30z"/><path d="m900 630h30v30h-30z"/><path d="m930 630h30v30h-30z"/><path d="m960 630h30v30h-30z"/><path d="m990 630h30v30h-30z"/><path d="m1020 630h30v30h-30z"/><path d="m90 660h30v30h-30z"/><path d="m120 660h30v30h-30z"/><path d="m150 660h30v30h-30z"/><path d="m180 660h30v30h-30z"/><path d="m240 660h30v30h-30z"/><path d="m270 660h30v30h-30z"/><path d="m300 660h30v30h-30z"/><path d="m360 660h30v30h-30z"/><path d="m390 660h30v30h-30z"/><path d="m480 660h30v30h-30z"/><path d="m510 660h30v30h-30z"/><path d="m540 660h30v30h-30z"/><path d="m810 660h30v30h-30z"/><path d="m870 660h30v30h-30z"/><path d="m900 660h30v30h-30z"/><path d="m990 660h30v30h-30z"/><path d="m60 690h30v30h-30z"/><path d="m90 690h30v30h-30z"/><path d="m180 690h30v30h-30z"/><path d="m330 690h30v30h-30z"/><path d="m360 690h30v30h-30z"/><path d="m420 690h30v30h-30z"/><path d="m480 690h30v30h-30z"/><path d="m540 690h30v30h-30z"/><path d="m570 690h30v30h-30z"/><path d="m600 690h30v30h-30z"/><path d="m660 690h30v30h-30z"/><path d="m690 690h30v30h-30z"/><path d="m750 690h30v30h-30z"/><path d="m780 690h30v30h-30z"/><path d="m870 690h30v30h-30z"/><path d="m900 690h30v30h-30z"/><path d="m60 720h30v30h-30z"/><path d="m150 720h30v30h-30z"/><path d="m180 720h30v30h-30z"/><path d="m210 720h30v30h-30z"/><path d="m240 720h30v30h-30z"/><path d="m330 720h30v30h-30z"/><path d="m510 720h30v30h-30z"/><path d="m540 720h30v30h-30z"/><path d="m600 720h30v30h-30z"/><path d="m690 720h30v30h-30z"/><path d="m780 720h30v30h-30z"/><path d="m990 720h30v30h-30z"/><path d="m60 750h30v30h-30z"/><path d="m150 750h30v30h-30z"/><path d="m180 750h30v30h-30z"/><path d="m210 750h30v30h-30z"/><path d="m270 750h30v30h-30z"/><path d="m330 750h30v30h-30z"/><path d="m390 750h30v30h-30z"/><path d="m420 750h30v30h-30z"/><path d="m450 750h30v30h-30z"/><path d="m480 750h30v30h-30z"/><path d="m630 750h30v30h-30z"/><path d="m660 750h30v30h-30z"/><path d="m720 750h30v30h-30z"/><path d="m750 750h30v30h-30z"/><path d="m780 750h30v30h-30z"/><path d="m840 750h30v30h-30z"/><path d="m870 750h30v30h-30z"/><path d="m960 750h30v30h-30z"/><path d="m1020 750h30v30h-30z"/><path d="m60 780h30v30h-30z"/><path d="m90 780h30v30h-30z"/><path d="m150 780h30v30h-30z"/><path d="m210 780h30v30h-30z"/><path d="m240 780h30v30h-30z"/><path d="m270 780h30v30h-30z"/><path d="m450 780h30v30h-30z"/><path d="m480 780h30v30h-30z"/><path d="m510 780h30v30h-30z"/><path d="m630 780h30v30h-30z"/><path d="m780 780h30v30h-30z"/><path d="m810 780h30v30h-30z"/><path d="m840 780h30v30h-30z"/><path d="m870 780h30v30h-30z"/><path d="m900 780h30v30h-30z"/><path d="m990 780h30v30h-30z"/><path d="m1020 780h30v30h-30z"/><path d="m300 810h30v30h-30z"/><path d="m330 810h30v30h-30z"/><path d="m390 810h30v30h-30z"/><path d="m420 810h30v30h-30z"/><path d="m480 810h30v30h-30z"/><path d="m510 810h30v30h-30z"/><path d="m600 810h30v30h-30z"/><path d="m630 810h30v30h-30z"/><path d="m690 810h30v30h-30z"/><path d="m720 810h30v30h-30z"/><path d="m750 810h30v30h-30z"/><path d="m780 810h30v30h-30z"/><path d="m900 810h30v30h-30z"/><path d="m960 810h30v30h-30z"/><path d="m990 810h30v30h-30z"/><path d="m1020 810h30v30h-30z"/><path d="m360 840h30v30h-30z"/><path d="m390 840h30v30h-30z"/><path d="m450 840h30v30h-30z"/><path d="m480 840h30v30h-30z"/><path d="m510 840h30v30h-30z"/><path d="m540 840h30v30h-30z"/><path d="m600 840h30v30h-30z"/><path d="m690 840h30v30h-30z"/><path d="m750 840h30v30h-30z"/><path d="m780 840h30v30h-30z"/><path d="m840 840h30v30h-30z"/><path d="m900 840h30v30h-30z"/><path d="m930 840h30v30h-30z"/><path d="m990 840h30v30h-30z"/><path d="m360 870h30v30h-30z"/><path d="m390 870h30v30h-30z"/><path d="m780 870h30v30h-30z"/><path d="m900 870h30v30h-30z"/><path d="m930 870h30v30h-30z"/><path d="m960 870h30v30h-30z"/><path d="m330 900h30v30h-30z"/><path d="m360 900h30v30h-30z"/><path d="m390 900h30v30h-30z"/><path d="m450 900h30v30h-30z"/><path d="m480 900h30v30h-30z"/><path d="m510 900h30v30h-30z"/><path d="m600 900h30v30h-30z"/><path d="m720 900h30v30h-30z"/><path d="m780 900h30v30h-30z"/><path d="m810 900h30v30h-30z"/><path d="m840 900h30v30h-30z"/><path d="m870 900h30v30h-30z"/><path d="m900 900h30v30h-30z"/><path d="m1020 900h30v30h-30z"/><path d="m360 930h30v30h-30z"/><path d="m390 930h30v30h-30z"/><path d="m480 930h30v30h-30z"/><path d="m540 930h30v30h-30z"/><path d="m630 930h30v30h-30z"/><path d="m660 930h30v30h-30z"/><path d="m720 930h30v30h-30z"/><path d="m750 930h30v30h-30z"/><path d="m810 930h30v30h-30z"/><path d="m900 930h30v30h-30z"/><path d="m960 930h30v30h-30z"/><path d="m990 930h30v30h-30z"/><path d="m1020 930h30v30h-30z"/><path d="m390 960h30v30h-30z"/><path d="m420 960h30v30h-30z"/><path d="m450 960h30v30h-30z"/><path d="m540 960h30v30h-30z"/><path d="m630 960h30v30h-30z"/><path d="m660 960h30v30h-30z"/><path d="m690 960h30v30h-30z"/><path d="m750 960h30v30h-30z"/><path d="m780 960h30v30h-30z"/><path d="m810 960h30v30h-30z"/><path d="m900 960h30v30h-30z"/><path d="m930 960h30v30h-30z"/><path d="m960 960h30v30h-30z"/><path d="m990 960h30v30h-30z"/><path d="m1020 960h30v30h-30z"/><path d="m360 990h30v30h-30z"/><path d="m420 990h30v30h-30z"/><path d="m450 990h30v30h-30z"/><path d="m480 990h30v30h-30z"/><path d="m510 990h30v30h-30z"/><path d="m540 990h30v30h-30z"/><path d="m600 990h30v30h-30z"/><path d="m630 990h30v30h-30z"/><path d="m750 990h30v30h-30z"/><path d="m840 990h30v30h-30z"/><path d="m870 990h30v30h-30z"/><path d="m900 990h30v30h-30z"/><path d="m930 990h30v30h-30z"/><path d="m960 990h30v30h-30z"/><path d="m300 1020h30v30h-30z"/><path d="m330 1020h30v30h-30z"/><path d="m360 1020h30v30h-30z"/><path d="m390 1020h30v30h-30z"/><path d="m420 1020h30v30h-30z"/><path d="m480 1020h30v30h-30z"/><path d="m540 1020h30v30h-30z"/><path d="m570 1020h30v30h-30z"/><path d="m630 1020h30v30h-30z"/><path d="m660 1020h30v30h-30z"/><path d="m750 1020h30v30h-30z"/><path d="m780 1020h30v30h-30z"/><path d="m900 1020h30v30h-30z"/><path d="m990 1020h30v30h-30z"/></g><g transform="matrix(2.1 0 0 2.1 60 60)"><path d="m65.859 15.008h-31.718c-4.082 0-7.869 1.258-10.979 3.398-2.419 1.665-4.428 3.864-5.848 6.421-1.476 2.657-2.314 5.699-2.314 8.931v32.471c0 10.344 8.586 18.76 19.145 18.76l15.855.003 15.855-.004c10.559 0 19.145-8.416 19.145-18.759v-32.471c0-10.339-8.586-18.75-19.141-18.75z" fill="none"/><path d="m65.859.008h-31.718c-15.458 0-28.554 10.213-32.741 24.172-.433 1.444-.771 2.928-1.006 4.445-.259 1.674-.394 3.388-.394 5.133v32.471c0 18.619 15.32 33.76 34.141 33.76l15.859.003 15.859-.004c18.82 0 34.141-15.141 34.141-33.76v-32.47c0-18.61-15.32-33.75-34.141-33.75zm19.141 66.221c0 10.344-8.586 18.76-19.145 18.76l-15.855.003-15.855-.004c-10.559 0-19.145-8.416-19.145-18.759v-32.471c0-3.231.838-6.273 2.313-8.931 1.42-2.557 3.429-4.756 5.848-6.421 3.11-2.141 6.897-3.398 10.979-3.398h31.719c10.555 0 19.141 8.411 19.141 18.75z"/></g>
<g transform="matrix(2.1 0 0 2.1 840 60)"><path d="m65.859 15.008h-31.718c-4.082 0-7.869 1.258-10.979 3.398-2.419 1.665-4.428 3.864-5.848 6.421-1.476 2.657-2.314 5.699-2.314 8.931v32.471c0 10.344 8.586 18.76 19.145 18.76l15.855.003 15.855-.004c10.559 0 19.145-8.416 19.145-18.759v-32.471c0-10.339-8.586-18.75-19.141-18.75z" fill="none"/><path d="m65.859.008h-31.718c-15.458 0-28.554 10.213-32.741 24.172-.433 1.444-.771 2.928-1.006 4.445-.259 1.674-.394 3.388-.394 5.133v32.471c0 18.619 15.32 33.76 34.141 33.76l15.859.003 15.859-.004c18.82 0 34.141-15.141 34.141-33.76v-32.47c0-18.61-15.32-33.75-34.141-33.75zm19.141 66.221c0 10.344-8.586 18.76-19.145 18.76l-15.855.003-15.855-.004c-10.559 0-19.145-8.416-19.145-18.759v-32.471c0-3.231.838-6.273 2.313-8.931 1.42-2.557 3.429-4.756 5.848-6.421 3.11-2.141 6.897-3.398 10.979-3.398h31.719c10.555 0 19.141 8.411 19.141 18.75z"/></g><g fill="#1c1d21" transform="matrix(2.1 0 0 2.1 60 840)"><path d="m65.859 15.008h-31.718c-4.082 0-7.869 1.258-10.979 3.398-2.419 1.665-4.428 3.864-5.848 6.421-1.476 2.657-2.314 5.699-2.314 8.931v32.471c0 10.344 8.586 18.76 19.145 18.76l15.855.003 15.855-.004c10.559 0 19.145-8.416 19.145-18.759v-32.471c0-10.339-8.586-18.75-19.141-18.75z" fill="none"/><path d="m65.859.008h-31.718c-15.458 0-28.554 10.213-32.741 24.172-.433 1.444-.771 2.928-1.006 4.445-.259 1.674-.394 3.388-.394 5.133v32.471c0 18.619 15.32 33.76 34.141 33.76l15.859.003 15.859-.004c18.82 0 34.141-15.141 34.141-33.76v-32.47c0-18.61-15.32-33.75-34.141-33.75zm19.141 66.221c0 10.344-8.586 18.76-19.145 18.76l-15.855.003-15.855-.004c-10.559 0-19.145-8.416-19.145-18.759v-32.471c0-3.231.838-6.273 2.313-8.931 1.42-2.557 3.429-4.756 5.848-6.421 3.11-2.141 6.897-3.398 10.979-3.398h31.719c10.555 0 19.141 8.411 19.141 18.75z"/></g><path d="m120 120h90v90h-90z" stroke-width=".9"/><path d="m900 120h90v90h-90z" stroke-width=".9"/><path d="m120 900h90v90h-90z" stroke-width=".9"/></svg>