<svg enable-background="new 0 0 1110 1110" height="1110" viewBox="0 0 1110 1110" width="1110" xmlns="http://www.w3.org/2000/svg"><path d="m0 0h1110v1110h-1110z" fill="#e0e0e0"/><g fill="#1c1d21" stroke-width=".3"><path d="m300 60h30v30h-30z"/><path d="m330 60h30v30h-30z"/><path d="m360 60h30v30h-30z"/><path d="m390 60h30v30h-30z"/><path d="m450 60h30v30h-30z"/><path d="m480 60h30v30h-30z"/><path d="m540 60h30v30h-30z"/><path d="m660 60h30v30h-30z"/><path d="m720 60h30v30h-30z"/><path d="m750 60h30v30h-30z"/><path d="m780 60h30v30h-30z"/><path d="m360 90h30v30h-30z"/><path d="m450 90h30v30h-30z"/><path d="m480 90h30v30h-30z"/><path d="m600 90h30v30h-30z"/><path d="m630 90h30v30h-30z"/><path d="m660 90h30v30h-30z"/><path d="m780 90h30v30h-30z"/><path d="m330 120h30v30h-30z"/><path d="m480 120h30v30h-30z"/><path d="m510 120h30v30h-30z"/><path d="m540 120h30v30h-30z"/><path d="m570 120h30v30h-30z"/><path d="m600 120h30v30h-30z"/><path d="m690 120h30v30h-30z"/><path d="m720 120h30v30h-30z"/><path d="m750 120h30v30h-30z"/><path d="m300 150h30v30h-30z"/><path d="m330 150h30v30h-30z"/><path d="m390 150h30v30h-30z"/><path d="m420 150h30v30h-30z"/><path d="m540 150h30v30h-30z"/><path d="m570 150h30v30h-30z"/><path d="m630 150h30v30h-30z"/><path d="m720 150h30v30h-30z"/><path d="m750 150h30v30h-30z"/><path d="m780 150h30v30h-30z"/><path d="m300 180h30v30h-30z"/><path d="m330 180h30v30h-30z"/><path d="m420 180h30v30h-30z"/><path d="m450 180h30v30h-30z"/><path d="m540 180h30v30h-30z"/><path d="m630 180h30v30h-30z"/><path d="m720 180h30v30h-30z"/><path d="m750 180h30v30h-30z"/><path d="m780 180h30v30h-30z"/><path d="m300 210h30v30h-30z"/><path d="m330 210h30v30h-30z"/><path d="m360 210h30v30h-30z"/><path d="m450 210h30v30h-30z"/><path d="m510 210h30v30h-30z"/><path d="m570 210h30v30h-30z"/><path d="m600 210h30v30h-30z"/><path d="m660 210h30v30h-30z"/><path d="m690 210h30v30h-30z"/><path d="m720 210h30v30h-30z"/><path d="m300 240h30v30h-30z"/><path d="m360 240h30v30h-30z"/><path d="m420 240h30v30h-30z"/><path d="m480 240h30v30h-30z"/><path d="m540 240h30v30h-30z"/><path d="m600 240h30v30h-30z"/><path d="m660 240h30v30h-30z"/><path d="m720 240h30v30h-30z"/><path d="m780 240h30v30h-30z"/><path d="m300 270h30v30h-30z"/><path d="m330 270h30v30h-30z"/><path d="m390 270h30v30h-30z"/><path d="m420 270h30v30h-30z"/><path d="m570 270h30v30h-30z"/><path d="m630 270h30v30h-30z"/><path d="m660 270h30v30h-30z"/><path d="m690 270h30v30h-30z"/><path d="m750 270h30v30h-30z"/><path d="m780 270h30v30h-30z"/><path d="m60 300h30v30h-30z"/><path d="m180 300h30v30h-30z"/><path d="m240 300h30v30h-30z"/><path d="m270 300h30v30h-30z"/><path d="m300 300h30v30h-30z"/><path d="m420 300h30v30h-30z"/><path d="m510 300h30v30h-30z"/><path d="m540 300h30v30h-30z"/><path d="m570 300h30v30h-30z"/><path d="m600 300h30v30h-30z"/><path d="m690 300h30v30h-30z"/><path d="m720 300h30v30h-30z"/><path d="m810 300h30v30h-30z"/><path d="m840 300h30v30h-30z"/><path d="m870 300h30v30h-30z"/><path d="m900 300h30v30h-30z"/><path d="m930 300h30v30h-30z"/><path d="m1020 300h30v30h-30z"/><path d="m60 330h30v30h-30z"/><path d="m90 330h30v30h-30z"/><path d="m120 330h30v30h-30z"/><path d="m150 330h30v30h-30z"/><path d="m330 330h30v30h-30z"/><path d="m360 330h30v30h-30z"/><path d="m420 330h30v30h-30z"/><path d="m480 330h30v30h-30z"/><path d="m510 330h30v30h-30z"/><path d="m570 330h30v30h-30z"/><path d="m660 330h30v30h-30z"/><path d="m750 330h30v30h-30z"/><path d="m780 330h30v30h-30z"/><path d="m810 330h30v30h-30z"/><path d="m870 330h30v30h-30z"/><path d="m930 330h30v30h-30z"/><path d="m960 330h30v30h-30z"/><path d="m990 330h30v30h-30z"/><path d="m1020 330h30v30h-30z"/><path d="m180 360h30v30h-30z"/><path d="m210 360h30v30h-30z"/><path d="m240 360h30v30h-30z"/><path d="m270 360h30v30h-30z"/><path d="m330 360h30v30h-30z"/><path d="m390 360h30v30h-30z"/><path d="m420 360h30v30h-30z"/><path d="m450 360h30v30h-30z"/><path d="m480 360h30v30h-30z"/><path d="m510 360h30v30h-30z"/><path d="m600 360h30v30h-30z"/><path d="m750 360h30v30h-30z"/><path d="m780 360h30v30h-30z"/><path d="m810 360h30v30h-30z"/><path d="m900 360h30v30h-30z"/><path d="m930 360h30v30h-30z"/><path d="m990 360h30v30h-30z"/><path d="m90 390h30v30h-30z"/><path d="m120 390h30v30h-30z"/><path d="m180 390h30v30h-30z"/><path d="m210 390h30v30h-30z"/><path d="m300 390h30v30h-30z"/><path d="m330 390h30v30h-30z"/><path d="m360 390h30v30h-30z"/><path d="m420 390h30v30h-30z"/><path d="m450 390h30v30h-30z"/><path d="m540 390h30v30h-30z"/><path d="m660 390h30v30h-30z"/><path d="m690 390h30v30h-30z"/><path d="m720 390h30v30h-30z"/><path d="m750 390h30v30h-30z"/><path d="m810 390h30v30h-30z"/><path d="m900 390h30v30h-30z"/><path d="m60 420h30v30h-30z"/><path d="m90 420h30v30h-30z"/><path d="m150 420h30v30h-30z"/><path d="m180 420h30v30h-30z"/><path d="m240 420h30v30h-30z"/><path d="m360 420h30v30h-30z"/><path d="m390 420h30v30h-30z"/><path d="m420 420h30v30h-30z"/><path d="m450 420h30v30h-30z"/><path d="m540 420h30v30h-30z"/><path d="m630 420h30v30h-30z"/><path d="m660 420h30v30h-30z"/><path d="m690 420h30v30h-30z"/><path d="m780 420h30v30h-30z"/><path d="m840 420h30v30h-30z"/><path d="m900 420h30v30h-30z"/><path d="m990 420h30v30h-30z"/><path d="m1020 420h30v30h-30z"/><path d="m60 450h30v30h-30z"/><path d="m90 450h30v30h-30z"/><path d="m120 450h30v30h-30z"/><path d="m150 450h30v30h-30z"/><path d="m180 450h30v30h-30z"/><path d="m270 450h30v30h-30z"/><path d="m300 450h30v30h-30z"/><path d="m480 450h30v30h-30z"/><path d="m600 450h30v30h-30z"/><path d="m630 450h30v30h-30z"/><path d="m660 450h30v30h-30z"/><path d="m720 450h30v30h-30z"/><path d="m810 450h30v30h-30z"/><path d="m870 450h30v30h-30z"/><path d="m930 450h30v30h-30z"/><path d="m960 450h30v30h-30z"/><path d="m150 480h30v30h-30z"/><path d="m180 480h30v30h-30z"/><path d="m240 480h30v30h-30z"/><path d="m330 480h30v30h-30z"/><path d="m360 480h30v30h-30z"/><path d="m390 480h30v30h-30z"/><path d="m420 480h30v30h-30z"/><path d="m450 480h30v30h-30z"/><path d="m510 480h30v30h-30z"/><path d="m570 480h30v30h-30z"/><path d="m600 480h30v30h-30z"/><path d="m690 480h30v30h-30z"/><path d="m750 480h30v30h-30z"/><path d="m810 480h30v30h-30z"/><path d="m840 480h30v30h-30z"/><path d="m930 480h30v30h-30z"/><path d="m990 480h30v30h-30z"/><path d="m120 510h30v30h-30z"/><path d="m180 510h30v30h-30z"/><path d="m270 510h30v30h-30z"/><path d="m300 510h30v30h-30z"/><path d="m330 510h30v30h-30z"/><path d="m360 510h30v30h-30z"/><path d="m390 510h30v30h-30z"/><path d="m450 510h30v30h-30z"/><path d="m510 510h30v30h-30z"/><path d="m540 510h30v30h-30z"/><path d="m570 510h30v30h-30z"/><path d="m600 510h30v30h-30z"/><path d="m630 510h30v30h-30z"/><path d="m690 510h30v30h-30z"/><path d="m720 510h30v30h-30z"/><path d="m810 510h30v30h-30z"/><path d="m870 510h30v30h-30z"/><path d="m900 510h30v30h-30z"/><path d="m930 510h30v30h-30z"/><path d="m990 510h30v30h-30z"/><path d="m60 540h30v30h-30z"/><path d="m90 540h30v30h-30z"/><path d="m120 540h30v30h-30z"/><path d="m180 540h30v30h-30z"/><path d="m240 540h30v30h-30z"/><path d="m300 540h30v30h-30z"/><path d="m390 540h30v30h-30z"/><path d="m420 540h30v30h-30z"/><path d="m480 540h30v30h-30z"/><path d="m570 540h30v30h-30z"/><path d="m600 540h30v30h-30z"/><path d="m630 540h30v30h-30z"/><path d="m720 540h30v30h-30z"/><path d="m780 540h30v30h-30z"/><path d="m810 540h30v30h-30z"/><path d="m840 540h30v30h-30z"/><path d="m870 540h30v30h-30z"/><path d="m900 540h30v30h-30z"/><path d="m930 540h30v30h-30z"/><path d="m1020 540h30v30h-30z"/><path d="m60 570h30v30h-30z"/><path d="m90 570h30v30h-30z"/><path d="m150 570h30v30h-30z"/><path d="m270 570h30v30h-30z"/><path d="m330 570h30v30h-30z"/><path d="m420 570h30v30h-30z"/><path d="m450 570h30v30h-30z"/><path d="m480 570h30v30h-30z"/><path d="m510 570h30v30h-30z"/><path d="m540 570h30v30h-30z"/><path d="m660 570h30v30h-30z"/><path d="m870 570h30v30h-30z"/><path d="m60 600h30v30h-30z"/><path d="m90 600h30v30h-30z"/><path d="m120 600h30v30h-30z"/><path d="m210 600h30v30h-30z"/><path d="m240 600h30v30h-30z"/><path d="m300 600h30v30h-30z"/><path d="m330 600h30v30h-30z"/><path d="m360 600h30v30h-30z"/><path d="m420 600h30v30h-30z"/><path d="m450 600h30v30h-30z"/><path d="m510 600h30v30h-30z"/><path d="m540 600h30v30h-30z"/><path d="m570 600h30v30h-30z"/><path d="m690 600h30v30h-30z"/><path d="m750 600h30v30h-30z"/><path d="m900 600h30v30h-30z"/><path d="m930 600h30v30h-30z"/><path d="m60 630h30v30h-30z"/><path d="m90 630h30v30h-30z"/><path d="m120 630h30v30h-30z"/><path d="m150 630h30v30h-30z"/><path d="m330 630h30v30h-30z"/><path d="m420 630h30v30h-30z"/><path d="m450 630h30v30h-30z"/><path d="m540 630h30v30h-30z"/><path d="m570 630h30v30h-30z"/><path d="m600 630h30v30h-30z"/><path d="m690 630h30v30h-30z"/><path d="m750 630h30v30h-30z"/><path d="m840 630h30v30h-30z"/><path d="m900 630h30v30h-30z"/><path d="m60 660h30v30h-30z"/><path d="m90 660h30v30h-30z"/><path d="m120 660h30v30h-30z"/><path d="m150 660h30v30h-30z"/><path d="m240 660h30v30h-30z"/><path d="m270 660h30v30h-30z"/><path d="m300 660h30v30h-30z"/><path d="m330 660h30v30h-30z"/><path d="m360 660h30v30h-30z"/><path d="m390 660h30v30h-30z"/><path d="m480 660h30v30h-30z"/><path d="m600 660h30v30h-30z"/><path d="m660 660h30v30h-30z"/><path d="m690 660h30v30h-30z"/><path d="m750 660h30v30h-30z"/><path d="m780 660h30v30h-30z"/><path d="m810 660h30v30h-30z"/><path d="m840 660h30v30h-30z"/><path d="m870 660h30v30h-30z"/><path d="m900 660h30v30h-30z"/><path d="m990 660h30v30h-30z"/><path d="m1020 660h30v30h-30z"/><path d="m60 690h30v30h-30z"/><path d="m120 690h30v30h-30z"/><path d="m150 690h30v30h-30z"/><path d="m210 690h30v30h-30z"/><path d="m300 690h30v30h-30z"/><path d="m330 690h30v30h-30z"/><path d="m390 690h30v30h-30z"/><path d="m450 690h30v30h-30z"/><path d="m540 690h30v30h-30z"/><path d="m570 690h30v30h-30z"/><path d="m630 690h30v30h-30z"/><path d="m720 690h30v30h-30z"/><path d="m930 690h30v30h-30z"/><path d="m960 690h30v30h-30z"/><path d="m990 690h30v30h-30z"/><path d="m150 720h30v30h-30z"/><path d="m180 720h30v30h-30z"/><path d="m240 720h30v30h-30z"/><path d="m330 720h30v30h-30z"/><path d="m390 720h30v30h-30z"/><path d="m420 720h30v30h-30z"/><path d="m540 720h30v30h-30z"/><path d="m570 720h30v30h-30z"/><path d="m660 720h30v30h-30z"/><path d="m690 720h30v30h-30z"/><path d="m750 720h30v30h-30z"/><path d="m780 720h30v30h-30z"/><path d="m840 720h30v30h-30z"/><path d="m870 720h30v30h-30z"/><path d="m960 720h30v30h-30z"/><path d="m990 720h30v30h-30z"/><path d="m180 750h30v30h-30z"/><path d="m270 750h30v30h-30z"/><path d="m300 750h30v30h-30z"/><path d="m360 750h30v30h-30z"/><path d="m420 750h30v30h-30z"/><path d="m570 750h30v30h-30z"/><path d="m630 750h30v30h-30z"/><path d="m690 750h30v30h-30z"/><path d="m750 750h30v30h-30z"/><path d="m840 750h30v30h-30z"/><path d="m900 750h30v30h-30z"/><path d="m930 750h30v30h-30z"/><path d="m990 750h30v30h-30z"/><path d="m1020 750h30v30h-30z"/><path d="m60 780h30v30h-30z"/><path d="m90 780h30v30h-30z"/><path d="m120 780h30v30h-30z"/><path d="m180 780h30v30h-30z"/><path d="m210 780h30v30h-30z"/><path d="m240 780h30v30h-30z"/><path d="m330 780h30v30h-30z"/><path d="m390 780h30v30h-30z"/><path d="m510 780h30v30h-30z"/><path d="m570 780h30v30h-30z"/><path d="m630 780h30v30h-30z"/><path d="m690 780h30v30h-30z"/><path d="m750 780h30v30h-30z"/><path d="m780 780h30v30h-30z"/><path d="m810 780h30v30h-30z"/><path d="m840 780h30v30h-30z"/><path d="m870 780h30v30h-30z"/><path d="m900 780h30v30h-30z"/><path d="m930 780h30v30h-30z"/><path d="m990 780h30v30h-30z"/><path d="m1020 780h30v30h-30z"/><path d="m300 810h30v30h-30z"/><path d="m330 810h30v30h-30z"/><path d="m420 810h30v30h-30z"/><path d="m540 810h30v30h-30z"/><path d="m570 810h30v30h-30z"/><path d="m600 810h30v30h-30z"/><path d="m660 810h30v30h-30z"/><path d="m720 810h30v30h-30z"/><path d="m750 810h30v30h-30z"/><path d="m780 810h30v30h-30z"/><path d="m900 810h30v30h-30z"/><path d="m930 810h30v30h-30z"/><path d="m960 810h30v30h-30z"/><path d="m300 840h30v30h-30z"/><path d="m330 840h30v30h-30z"/><path d="m360 840h30v30h-30z"/><path d="m510 840h30v30h-30z"/><path d="m600 840h30v30h-30z"/><path d="m720 840h30v30h-30z"/><path d="m780 840h30v30h-30z"/><path d="m840 840h30v30h-30z"/><path d="m900 840h30v30h-30z"/><path d="m330 870h30v30h-30z"/><path d="m420 870h30v30h-30z"/><path d="m450 870h30v30h-30z"/><path d="m510 870h30v30h-30z"/><path d="m540 870h30v30h-30z"/><path d="m630 870h30v30h-30z"/><path d="m690 870h30v30h-30z"/><path d="m780 870h30v30h-30z"/><path d="m900 870h30v30h-30z"/><path d="m990 870h30v30h-30z"/><path d="m300 900h30v30h-30z"/><path d="m360 900h30v30h-30z"/><path d="m420 900h30v30h-30z"/><path d="m450 900h30v30h-30z"/><path d="m540 900h30v30h-30z"/><path d="m630 900h30v30h-30z"/><path d="m690 900h30v30h-30z"/><path d="m780 900h30v30h-30z"/><path d="m810 900h30v30h-30z"/><path d="m840 900h30v30h-30z"/><path d="m870 900h30v30h-30z"/><path d="m900 900h30v30h-30z"/><path d="m930 900h30v30h-30z"/><path d="m1020 900h30v30h-30z"/><path d="m360 930h30v30h-30z"/><path d="m390 930h30v30h-30z"/><path d="m450 930h30v30h-30z"/><path d="m480 930h30v30h-30z"/><path d="m600 930h30v30h-30z"/><path d="m660 930h30v30h-30z"/><path d="m720 930h30v30h-30z"/><path d="m780 930h30v30h-30z"/><path d="m810 930h30v30h-30z"/><path d="m840 930h30v30h-30z"/><path d="m900 930h30v30h-30z"/><path d="m390 960h30v30h-30z"/><path d="m450 960h30v30h-30z"/><path d="m480 960h30v30h-30z"/><path d="m510 960h30v30h-30z"/><path d="m660 960h30v30h-30z"/><path d="m720 960h30v30h-30z"/><path d="m750 960h30v30h-30z"/><path d="m810 960h30v30h-30z"/><path d="m840 960h30v30h-30z"/><path d="m900 960h30v30h-30z"/><path d="m930 960h30v30h-30z"/><path d="m330 990h30v30h-30z"/><path d="m390 990h30v30h-30z"/><path d="m420 990h30v30h-30z"/><path d="m510 990h30v30h-30z"/><path d="m540 990h30v30h-30z"/><path d="m570 990h30v30h-30z"/><path d="m600 990h30v30h-30z"/><path d="m690 990h30v30h-30z"/><path d="m780 990h30v30h-30z"/><path d="m870 990h30v30h-30z"/><path d="m930 990h30v30h-30z"/><path d="m300 1020h30v30h-30z"/><path d="m360 1020h30v30h-30z"/><path d="m390 1020h30v30h-30z"/><path d="m420 1020h30v30h-30z"/><path d="m450 1020h30v30h-30z"/><path d="m570 1020h30v30h-30z"/><path d="m630 1020h30v30h-30z"/><path d="m660 1020h30v30h-30z"/><path d="m690 1020h30v30h-30z"/><path d="m720 1020h30v30h-30z"/><path d="m780 1020h30v30h-30z"/><path d="m810 1020h30v30h-30z"/><path d="m840 1020h30v30h-30z"/><path d="m930 1020h30v30h-30z"/><path d="m1020 1020h30v30h-30z"/></g><g transform="matrix(2.1 0 0 2.1 60 60)"><path d="m65.859 15.008h-31.718c-4.082 0-7.869 1.258-10.979 3.398-2.419 1.665-4.428 3.864-5.848 6.421-1.476 2.657-2.314 5.699-2.314 8.931v32.471c0 10.344 8.586 18.76 19.145 18.76l15.855.003 15.855-.004c10.559 0 19.145-8.416 19.145-18.759v-32.471c0-10.339-8.586-18.75-19.141-18.75z" fill="none"/><path d="m65.859.008h-31.718c-15.458 0-28.554 10.213-32.741 24.172-.433 1.444-.771 2.928-1.006 4.445-.259 1.674-.394 3.388-.394 5.133v32.471c0 18.619 15.32 33.76 34.141 33.76l15.859.003 15.859-.004c18.82 0 34.141-15.141 34.141-33.76v-32.47c0-18.61-15.32-33.75-34.141-33.75zm19.141 66.221c0 10.344-8.586 18.76-19.145 18.76l-15.855.003-15.855-.004c-10.559 0-19.145-8.416-19.145-18.759v-32.471c0-3.231.838-6.273 2.313-8.931 1.42-2.557 3.429-4.756 5.848-6.421 3.11-2.141 6.897-3.398 10.979-3.398h31.719c10.555 0 19.141 8.411 19.141 18.75z"/></g><g transform="matrix(2.1 0 0 2.1 840 60)"><path d="m65.859 15.008h-31.718c-4.082 0-7.869 1.258-10.979 3.398-2.419 1.665-4.428 3.864-5.848 6.421-1.476 2.657-2.314 5.699-2.314 8.931v32.471c0 10.344 8.586 18.76 19.145 18.76l15.855.003 15.855-.004c10.559 0 19.145-8.416 19.145-18.759v-32.471c0-10.339-8.586-18.75-19.141-18.75z" fill="none"/><path d="m65.859.008h-31.718c-15.458 0-28.554 10.213-32.741 24.172-.433 1.444-.771 2.928-1.006 4.445-.259 1.674-.394 3.388-.394 5.133v32.471c0 18.619 15.32 33.76 34.141 33.76l15.859.003 15.859-.004c18.82 0 34.141-15.141 34.141-33.76v-32.47c0-18.61-15.32-33.75-34.141-33.75zm19.141 66.221c0 10.344-8.586 18.76-19.145 18.76l-15.855.003-15.855-.004c-10.559 0-19.145-8.416-19.145-18.759v-32.471c0-3.231.838-6.273 2.313-8.931 1.42-2.557 3.429-4.756 5.848-6.421 3.11-2.141 6.897-3.398 10.979-3.398h31.719c10.555 0 19.141 8.411 19.141 18.75z"/></g><g transform="matrix(2.1 0 0 2.1 60 840)"><path d="m65.859 15.008h-31.718c-4.082 0-7.869 1.258-10.979 3.398-2.419 1.665-4.428 3.864-5.848 6.421-1.476 2.657-2.314 5.699-2.314 8.931v32.471c0 10.344 8.586 18.76 19.145 18.76l15.855.003 15.855-.004c10.559 0 19.145-8.416 19.145-18.759v-32.471c0-10.339-8.586-18.75-19.141-18.75z" fill="none"/><path d="m65.859.008h-31.718c-15.458 0-28.554 10.213-32.741 24.172-.433 1.444-.771 2.928-1.006 4.445-.259 1.674-.394 3.388-.394 5.133v32.471c0 18.619 15.32 33.76 34.141 33.76l15.859.003 15.859-.004c18.82 0 34.141-15.141 34.141-33.76v-32.47c0-18.61-15.32-33.75-34.141-33.75zm19.141 66.221c0 10.344-8.586 18.76-19.145 18.76l-15.855.003-15.855-.004c-10.559 0-19.145-8.416-19.145-18.759v-32.471c0-3.231.838-6.273 2.313-8.931 1.42-2.557 3.429-4.756 5.848-6.421 3.11-2.141 6.897-3.398 10.979-3.398h31.719c10.555 0 19.141 8.411 19.141 18.75z"/></g><path d="m120 120h90v90h-90z" stroke-width=".9"/><path d="m900 120h90v90h-90z" stroke-width=".9"/><path d="m120 900h90v90h-90z" stroke-width=".9"/></svg>